<?xml version="1.0" encoding="UTF-8"?>
<svg id="uuid-54891cea-8c13-4097-b39a-70c4cf0d2cf1" data-name="Layer 2" xmlns="http://www.w3.org/2000/svg" width="25.8" height="49.6" viewBox="0 0 25.8 49.6">
  <g id="uuid-fbd05a99-d400-4e8a-80a3-9d570cf93335" data-name="Capa 1">
    <g>
      <path d="M0,24.8c0,.2,0,.5,.3,.7l23.9,23.9c.4,.4,1,.4,1.4,0s.4-1,0-1.4L1.6,24.1c-.4-.4-1-.4-1.4,0S0,24.5,0,24.8Z"/>
      <path d="M0,24.9c0,.2,0,.5,.3,.7,.4,.4,1,.4,1.4,0L25.5,1.6c.4-.4,.4-1,0-1.4s-1-.4-1.4,0L.3,24.2C0,24.4,0,24.6,0,24.9Z"/>
    </g>
  </g>
</svg>