<?xml version="1.0" encoding="UTF-8"?>
<svg id="uuid-e12060bb-9f06-4ac5-809c-e3d4dfdadff8" data-name="Layer 2" xmlns="http://www.w3.org/2000/svg" width="18.6" height="35.7" viewBox="0 0 18.6 35.7">
  <defs>
    <style>
      .uuid-ff662d6a-7c37-44f7-8f0a-4d74d4b18d3f {
        fill: #fff;
      }
    </style>
  </defs>
  <g id="uuid-a5a2e3b8-be23-4b2c-8095-b3c5b7ebc556" data-name="Capa 1">
    <g>
      <path class="uuid-ff662d6a-7c37-44f7-8f0a-4d74d4b18d3f" d="M18.6,17.8c0,.2,0,.4-.2,.5L1.2,35.5c-.3,.3-.7,.3-1,0s-.3-.7,0-1L17.4,17.3c.3-.3,.7-.3,1,0s.2,.3,.2,.5Z"/>
      <path class="uuid-ff662d6a-7c37-44f7-8f0a-4d74d4b18d3f" d="M18.6,17.9c0,.2,0,.4-.2,.5-.3,.3-.7,.3-1,0L.2,1.2C0,.9,0,.5,.2,.2S.9,0,1.2,.2L18.4,17.4c.1,.1,.2,.3,.2,.5Z"/>
    </g>
  </g>
</svg>