<?xml version="1.0" encoding="UTF-8"?>
<svg id="uuid-9edad81f-7cfa-45b0-bce0-d8255abc69e8" data-name="Layer 2" xmlns="http://www.w3.org/2000/svg" width="25.8" height="49.6" viewBox="0 0 25.8 49.6">
  <g id="uuid-ecf04f30-79c7-4b00-a911-5c37e74a3ad3" data-name="Capa 1">
    <g>
      <path d="M25.8,24.8c0,.2,0,.5-.3,.7L1.6,49.3c-.4,.4-1,.4-1.4,0s-.4-1,0-1.4L24.2,24.1c.4-.4,1-.4,1.4,0s.3,.4,.3,.7Z"/>
      <path d="M25.8,24.9c0,.2,0,.5-.3,.7-.4,.4-1,.4-1.4,0L.3,1.6C0,1.3,0,.7,.3,.3S1.3,0,1.6,.3L25.5,24.2c.2,.2,.3,.4,.3,.7Z"/>
    </g>
  </g>
</svg>