<?xml version="1.0" encoding="UTF-8"?>
<svg id="uuid-58ecb29d-6c27-4b41-b6e4-40651e01b916" data-name="Layer 2" xmlns="http://www.w3.org/2000/svg" width="79.5" height="28.4" viewBox="0 0 79.5 28.4">
  <defs>
    <style>
 

      .uuid-fe8ccea0-ab05-4578-95a2-33001ee4cccf {
        fill: #a3182c;
      }
    </style>
  </defs>
  <g id="uuid-297db031-435d-4fa4-82c6-26ae8a86a430" data-name="Capa 1">
    <g>
      <path fill="#373435" d="M32.1,5.9c-.1,.2-.2,.3-.4,.4-.7,.7-1.6,1.1-2.6,1.1s-1.9-.4-2.6-1.1c-.7-.7-1.1-1.6-1.1-2.6s.4-1.9,1.1-2.6C27.2,.4,28.2,0,29.2,0s1.9,.4,2.6,1.1c.1,.1,.3,.3,.4,.4l-1.1,.8c-.4-.6-1.1-1-1.9-1-1.3,0-2.4,1.1-2.4,2.4s1.1,2.4,2.4,2.4,1.5-.4,1.9-1l1.1,.8Z"/>
      <path fill="#373435" d="M38.8,3.7c0-1.3-1.1-2.4-2.4-2.4s-2.4,1.1-2.4,2.4,1.1,2.4,2.4,2.4,2.4-1.1,2.4-2.4m0-3.5h1.3V7.2h-1.3v-.8c-.7,.6-1.5,1-2.4,1s-1.9-.4-2.6-1.1c-.7-.7-1.1-1.6-1.1-2.6s.4-1.9,1.1-2.6c.7-.7,1.6-1.1,2.6-1.1s1.7,.4,2.4,1V.2Z"/>
      <path fill="#373435" d="M46.9,5.1c0,.4-.1,.8-.3,1.1-.2,.3-.5,.6-.9,.8-.4,.2-.8,.3-1.3,.3s-.5,0-.7,0c-.8-.2-1.5-.5-2.1-1l.8-.9c.8,.7,1.5,.8,1.9,.8s.6,0,.8-.2c.2,0,.6-.3,.6-.8s-.4-.8-1.4-.9c0,0-1.2-.2-1.6-.5-.6-.4-1-.9-1-1.6s.1-.8,.3-1.1c.2-.3,.5-.5,.9-.7,.4-.2,.8-.3,1.2-.3s.4,0,.5,0c.7,.1,1.3,.4,1.9,.8l-.8,.9c-.7-.5-1.3-.6-1.6-.6s-.5,0-.8,.2c-.3,.2-.5,.4-.5,.7,0,.5,.4,.7,1.3,.9,0,0,1.3,.3,1.6,.5,.4,.2,.6,.4,.7,.6,.2,.3,.3,.7,.3,1.1Z"/>
      <path fill="#373435" d="M54,3.7c0-1.3-1.1-2.4-2.4-2.4s-2.4,1.1-2.4,2.4,1.1,2.4,2.4,2.4,2.4-1.1,2.4-2.4m0-3.5h1.3V7.2h-1.3v-.8c-.7,.6-1.5,1-2.4,1s-1.9-.4-2.6-1.1c-.7-.7-1.1-1.6-1.1-2.6s.4-1.9,1.1-2.6c.7-.7,1.6-1.1,2.6-1.1s1.7,.4,2.4,1V.2Z"/>
      <path fill="#373435" d="M31.5,14.9c0-1.3-1.1-2.4-2.4-2.4s-2.4,1.1-2.4,2.4,1.1,2.4,2.4,2.4,2.4-1.1,2.4-2.4Zm1.3,0c0,1-.4,1.9-1.1,2.6-.7,.7-1.6,1.1-2.6,1.1s-1.7-.4-2.4-1v4.9h-1.3V11.4h1.3v.8c.7-.6,1.5-1,2.4-1s1.9,.4,2.6,1.1c.7,.7,1.1,1.6,1.1,2.6Z"/>
      <path fill="#373435" d="M35.7,12.1c.4-.5,1.8-.9,2.6-.9l-.3,1.3c-1.2,0-2.2,.9-2.2,2.1v3.8h-1.3v-7.1h1.3v.7Z"/>
      <path fill="#373435" d="M44.8,14.9c0-1.3-1.1-2.4-2.4-2.4s-2.4,1.1-2.4,2.4,1.1,2.4,2.4,2.4,2.4-1.1,2.4-2.4Zm0-3.5h1.3v7.1h-1.3v-.8c-.7,.6-1.5,1-2.4,1s-1.9-.4-2.6-1.1c-.7-.7-1.1-1.6-1.1-2.6s.4-1.9,1.1-2.6c.7-.7,1.6-1.1,2.6-1.1s1.7,.4,2.4,1v-.8Z"/>
      <path fill="#373435" d="M54.2,17.1c-.1,.2-.2,.3-.4,.4-.7,.7-1.6,1.1-2.6,1.1s-1.9-.4-2.6-1.1c-.7-.7-1.1-1.6-1.1-2.6s.4-1.9,1.1-2.6c.7-.7,1.6-1.1,2.6-1.1s1.9,.4,2.6,1.1c.1,.1,.3,.3,.4,.4l-1.1,.8c-.4-.6-1.1-1-1.9-1-1.3,0-2.4,1.1-2.4,2.4s1.1,2.4,2.4,2.4,1.5-.4,1.9-1l1.1,.8Z"/>
      <path fill="#373435" d="M56,16.1v-3.5h-1v-1.3h1v-2.7h1.3v2.7h2.2v1.3h-2.2v3.4c0,.6,.5,1.1,1,1.1h1.2l.3,1.3h-1.6c-1.3,0-2.3-1-2.3-2.3Z"/>
      <path fill="#373435" d="M61.3,11.4h1.3v7.1h-1.3v-7.1Zm-.2-2c0-.5,.4-.9,.9-.9s.9,.4,.9,.9-.4,.9-.9,.9-.9-.4-.9-.9"/>
      <polygon fill="#373435" points="71.8 18.4 70.1 18.4 67.5 14.9 66.3 16 66.3 18.4 64.9 18.4 64.9 7.1 66.3 7.1 66.3 14.2 69.3 11.4 71.2 11.4 68.5 13.9 71.8 18.4"/>
      <path fill="#373435" d="M77.8,14.9c0-1.3-1.1-2.4-2.4-2.4s-2.4,1.1-2.4,2.4,1.1,2.4,2.4,2.4,2.4-1.1,2.4-2.4Zm0-3.5h1.3v7.1h-1.3v-.8c-.7,.6-1.5,1-2.4,1s-1.9-.4-2.6-1.1c-.7-.7-1.1-1.6-1.1-2.6s.4-1.9,1.1-2.6c.7-.7,1.6-1.1,2.6-1.1s1.7,.4,2.4,1v-.8Z"/>
      <path fill="#373435" d="M40.9,10.7v-.2l1.8-1.2c.5-.3,.9-.5,1-.6,.2,0,.3,0,.5,0,.2,0,.3,.2,.3,.3,0,.2,0,.3,0,.5,0,.2-.4,.4-.8,.5l-2.9,.7Z"/>
      <path fill="#a3182c"  d="M14.2,20.7c1.8-.6,3.1-1.5,4.4-2.9-2.5-2.3-5-4.5-7.5-6.8-.4-.4-.5-1.1,0-1.5,.4-.4,1.1-.5,1.5,0,2.5,2.2,4.9,4.4,7.4,6.6C24,9,19,0,10.8,0,2.6,0-2.6,8.8,1.4,15.9c3.4-3.7,6.7-7.5,10.1-11.2,.4-.4,1.1-.5,1.5,0,.4,.4,.5,1.1,0,1.5-3.5,3.8-6.9,7.7-10.4,11.6,2.9,3.3,7.4,4.5,11.6,3Z"/>
      <polygon fill="#373435" points="1 26.3 1 28.3 .3 28.3 .3 25.1 .8 25.1 2.5 27.2 2.5 25.1 3.1 25.1 3.1 28.3 2.6 28.3 1 26.3"/>
      <polygon fill="#373435" points="7.1 27.8 7.1 28.3 4.9 28.3 4.9 25.1 7.1 25.1 7.1 25.7 5.5 25.7 5.5 26.5 6.8 26.5 6.8 27 5.5 27 5.5 27.8 7.1 27.8"/>
      <path fill="#373435" d="M10.8,28c-.3,.3-.6,.4-.9,.4s-.4,0-.6-.1c-.2,0-.3-.2-.5-.3-.1-.1-.2-.3-.3-.5,0-.2-.1-.4-.1-.7s0-.4,.1-.6c0-.2,.2-.4,.3-.5,.1-.1,.3-.3,.5-.3,.2,0,.4-.1,.6-.1s.6,0,.8,.2c.2,.1,.4,.3,.5,.5l-.5,.3c0-.2-.2-.3-.3-.4-.1,0-.3-.1-.5-.1s-.3,0-.4,0c-.1,0-.2,.1-.3,.2,0,0-.1,.2-.2,.3,0,.1,0,.3,0,.4s0,.3,0,.4c0,.1,.1,.2,.2,.3,0,0,.2,.2,.3,.2,.1,0,.2,0,.4,0,.3,0,.6-.1,.8-.4v-.2h-.6v-.5h1.2v1.7h-.5v-.4Z"/>
      <path fill="#373435" d="M14.3,28.4c-.2,0-.4,0-.6-.1-.2,0-.4-.2-.5-.4s-.2-.3-.3-.5c0-.2-.1-.4-.1-.6s0-.4,.1-.6c0-.2,.2-.4,.3-.5,.1-.2,.3-.3,.5-.4,.2,0,.4-.1,.6-.1s.4,0,.6,.1c.2,0,.4,.2,.5,.4,.1,.2,.2,.3,.3,.5,0,.2,.1,.4,.1,.6s0,.4-.1,.6c0,.2-.2,.4-.3,.5-.1,.1-.3,.3-.5,.4-.2,0-.4,.1-.6,.1Zm-.9-1.6c0,.1,0,.3,0,.4,0,.1,.1,.2,.2,.3,0,0,.2,.2,.3,.2,.1,0,.2,0,.4,0s.3,0,.4,0,.2-.1,.3-.2c0-.1,.1-.2,.2-.3,0-.1,0-.3,0-.4s0-.3,0-.4c0-.1-.1-.2-.2-.3,0,0-.2-.2-.3-.2s-.2,0-.4,0-.3,0-.4,0c-.1,0-.2,.1-.3,.2,0,.1-.1,.2-.2,.3,0,.1,0,.3,0,.4Z"/>
      <path fill="#373435" d="M17.2,26.7c0-.2,0-.4,.1-.6,0-.2,.2-.4,.3-.5,.1-.2,.3-.3,.5-.4,.2,0,.4-.1,.7-.1s.6,0,.8,.2c.2,.1,.4,.3,.5,.5l-.5,.3c0,0,0-.2-.2-.2,0,0-.1-.1-.2-.1,0,0-.1,0-.2,0,0,0-.1,0-.2,0-.2,0-.3,0-.4,0-.1,0-.2,.1-.3,.2,0,.1-.1,.2-.2,.3,0,.1,0,.3,0,.4s0,.3,0,.4c0,.1,.1,.2,.2,.3,0,0,.2,.2,.3,.2,.1,0,.2,0,.4,0s.1,0,.2,0c0,0,.2,0,.2,0,0,0,.1,0,.2-.2,0,0,.1-.1,.1-.2l.5,.3c0,.1-.1,.2-.2,.3s-.2,.2-.3,.2c-.1,0-.2,.1-.4,.1-.1,0-.3,0-.4,0-.2,0-.4,0-.6-.1-.2,0-.4-.2-.5-.4-.1-.2-.2-.3-.3-.5,0-.2-.1-.4-.1-.6Z"/>
      <rect fill="#373435" x="21.6" y="25.1" width=".6" height="3.2"/>
      <path fill="#373435" d="M25.3,28.4c-.2,0-.4,0-.6-.1s-.4-.2-.5-.4-.2-.3-.3-.5c0-.2-.1-.4-.1-.6s0-.4,.1-.6c0-.2,.2-.4,.3-.5,.1-.2,.3-.3,.5-.4,.2,0,.4-.1,.6-.1s.4,0,.6,.1c.2,0,.4,.2,.5,.4,.1,.2,.2,.3,.3,.5,0,.2,.1,.4,.1,.6s0,.4-.1,.6c0,.2-.2,.4-.3,.5s-.3,.3-.5,.4c-.2,0-.4,.1-.6,.1Zm-.9-1.6c0,.1,0,.3,0,.4,0,.1,.1,.2,.2,.3,0,0,.2,.2,.3,.2,.1,0,.2,0,.4,0s.3,0,.4,0c.1,0,.2-.1,.3-.2,0-.1,.1-.2,.2-.3,0-.1,0-.3,0-.4s0-.3,0-.4c0-.1-.1-.2-.2-.3,0,0-.2-.2-.3-.2-.1,0-.2,0-.4,0s-.3,0-.4,0c-.1,0-.2,.1-.3,.2,0,.1-.1,.2-.2,.3,0,.1,0,.3,0,.4Z"/>
      <path fill="#373435" d="M30.3,26s0,0-.1,0c0,0-.1,0-.2-.1,0,0-.2,0-.3,0,0,0-.2,0-.3,0-.2,0-.3,0-.4,0,0,0-.1,.2-.1,.3s0,.1,0,.2c0,0,0,0,.1,.1,0,0,.1,0,.2,0,0,0,.2,0,.3,0,.2,0,.3,0,.4,.1s.2,.1,.3,.2c0,0,.2,.2,.2,.3,0,.1,0,.2,0,.4s0,.3,0,.4c0,.1-.2,.2-.3,.3-.1,0-.2,.1-.4,.2-.1,0-.3,0-.5,0-.2,0-.5,0-.7-.1-.2,0-.4-.2-.6-.3l.3-.5s0,0,.1,.1c0,0,.2,0,.3,.1,0,0,.2,0,.3,.1,.1,0,.2,0,.4,0,.3,0,.5-.1,.5-.3s0-.1,0-.2c0,0,0,0-.2-.1,0,0-.2,0-.3,0-.1,0-.2,0-.3,0-.2,0-.3,0-.4-.1-.1,0-.2-.1-.3-.2,0,0-.1-.1-.2-.2,0,0,0-.2,0-.3s0-.3,0-.4c0-.1,.1-.2,.3-.3,.1,0,.2-.1,.4-.2,.1,0,.3,0,.5,0s.4,0,.6,.1,.4,.2,.5,.3l-.3,.5Z"/>
      <rect fill="#373435" x="33.3" y="25.1" width=".6" height="3.2"/>
      <polygon fill="#373435" points="36.3 26.3 36.3 28.3 35.7 28.3 35.7 25.1 36.1 25.1 37.8 27.2 37.8 25.1 38.5 25.1 38.5 28.3 37.9 28.3 36.3 26.3"/>
      <polygon fill="#373435" points="42.8 28.3 42.8 26.2 42 27.8 41.6 27.8 40.8 26.2 40.8 28.3 40.2 28.3 40.2 25.1 40.8 25.1 41.8 27 42.8 25.1 43.4 25.1 43.4 28.3 42.8 28.3"/>
      <path fill="#373435" d="M46.5,28.4c-.2,0-.4,0-.6-.1s-.4-.2-.5-.4c-.1-.2-.2-.3-.3-.5s-.1-.4-.1-.6,0-.4,.1-.6c0-.2,.2-.4,.3-.5,.1-.2,.3-.3,.5-.4,.2,0,.4-.1,.6-.1s.4,0,.6,.1c.2,0,.4,.2,.5,.4,.1,.2,.2,.3,.3,.5,0,.2,.1,.4,.1,.6s0,.4-.1,.6c0,.2-.2,.4-.3,.5-.1,.1-.3,.3-.5,.4-.2,0-.4,.1-.6,.1Zm-.9-1.6c0,.1,0,.3,0,.4,0,.1,.1,.2,.2,.3,0,0,.2,.2,.3,.2,.1,0,.2,0,.4,0s.3,0,.4,0,.2-.1,.3-.2c0-.1,.1-.2,.2-.3,0-.1,0-.3,0-.4s0-.3,0-.4c0-.1-.1-.2-.2-.3,0,0-.2-.2-.3-.2-.1,0-.2,0-.4,0s-.3,0-.4,0c-.1,0-.2,.1-.3,.2,0,.1-.1,.2-.2,.3,0,.1,0,.3,0,.4Z"/>
      <path fill="#373435" d="M52.2,27.5c0,.1,0,.3,0,.4,0,.1-.1,.2-.2,.3,0,0-.2,.1-.3,.2-.1,0-.3,0-.4,0h-1.6v-3.2h1.7c.1,0,.2,0,.3,0,0,0,.2,.1,.2,.2,0,0,.1,.2,.1,.3,0,0,0,.2,0,.3,0,.2,0,.3-.1,.4,0,.1-.2,.2-.3,.3,.2,0,.3,.2,.4,.3,.1,.1,.2,.3,.2,.5m-.6-.1c0,0,0-.1,0-.2,0,0,0,0,0-.1,0,0,0,0-.1,0,0,0,0,0-.1,0h-1v.8h.9c0,0,.1,0,.2,0,0,0,0,0,.1,0,0,0,0,0,0-.1,0,0,0-.1,0-.2Zm-1.3-1.7v.8h.8c.1,0,.2,0,.3-.1,0,0,.1-.2,.1-.3s0-.2-.1-.3c0,0-.2-.1-.3-.1h-.9Z"/>
      <rect fill="#373435" x="53.8" y="25.1" width=".6" height="3.2"/>
      <polygon fill="#373435" points="56.1 28.3 56.1 25.1 56.7 25.1 56.7 27.8 58.4 27.8 58.4 28.3 56.1 28.3"/>
      <rect fill="#373435" x="59.8" y="25.1" width=".6" height="3.2"/>
      <path fill="#373435" d="M63.1,25.1h.6l1.2,3.2h-.6l-.3-.8h-1.1l-.3,.8h-.6l1.2-3.2Zm.7,2l-.4-1.3-.5,1.3h.9Z"/>
      <path fill="#373435" d="M66.3,28.3v-3.2h1.4c.1,0,.3,0,.4,0,.1,0,.2,.1,.3,.2,0,.1,.2,.2,.2,.3,0,.1,0,.3,0,.4,0,.2,0,.4-.2,.6-.1,.2-.2,.3-.4,.4l.7,1.2h-.7l-.7-1.1h-.6v1.1h-.6Zm.6-1.6h.8c0,0,.1,0,.2,0,0,0,0,0,.1-.1,0,0,0-.1,0-.2,0,0,0-.1,0-.2s0-.1,0-.2c0,0,0-.1,0-.2,0,0,0,0-.1-.1,0,0-.1,0-.2,0h-.8v1Z"/>
      <rect fill="#373435" x="70.3" y="25.1" width=".6" height="3.2"/>
      <path fill="#373435" d="M74.1,28.4c-.2,0-.4,0-.6-.1s-.4-.2-.5-.4c-.1-.2-.2-.3-.3-.5s-.1-.4-.1-.6,0-.4,.1-.6c0-.2,.2-.4,.3-.5,.1-.2,.3-.3,.5-.4,.2,0,.4-.1,.6-.1s.4,0,.6,.1c.2,0,.4,.2,.5,.4,.1,.2,.2,.3,.3,.5,0,.2,.1,.4,.1,.6s0,.4-.1,.6c0,.2-.2,.4-.3,.5-.1,.1-.3,.3-.5,.4-.2,0-.4,.1-.6,.1Zm-.9-1.6c0,.1,0,.3,0,.4,0,.1,.1,.2,.2,.3,0,0,.2,.2,.3,.2,.1,0,.2,0,.4,0s.3,0,.4,0,.2-.1,.3-.2c0-.1,.1-.2,.2-.3,0-.1,0-.3,0-.4s0-.3,0-.4c0-.1-.1-.2-.2-.3,0,0-.2-.2-.3-.2-.1,0-.2,0-.4,0s-.3,0-.4,0c-.1,0-.2,.1-.3,.2,0,.1-.1,.2-.2,.3,0,.1,0,.3,0,.4Z"/>
      <path fill="#373435" d="M79.1,26s0,0-.1,0c0,0-.1,0-.2-.1,0,0-.2,0-.3,0,0,0-.2,0-.3,0-.2,0-.3,0-.4,0,0,0-.1,.2-.1,.3s0,.1,0,.2c0,0,0,0,.1,.1,0,0,.1,0,.2,0,0,0,.2,0,.3,0,.2,0,.3,0,.4,.1s.2,.1,.3,.2c0,0,.2,.2,.2,.3,0,.1,0,.2,0,.4s0,.3,0,.4c0,.1-.2,.2-.3,.3-.1,0-.2,.1-.4,.2-.1,0-.3,0-.5,0-.2,0-.5,0-.7-.1-.2,0-.4-.2-.6-.3l.3-.5s0,0,.1,.1c0,0,.2,0,.3,.1,0,0,.2,0,.3,.1,.1,0,.2,0,.4,0,.3,0,.5-.1,.5-.3s0-.1,0-.2c0,0,0,0-.2-.1,0,0-.2,0-.3,0-.1,0-.2,0-.3,0-.2,0-.3,0-.4-.1-.1,0-.2-.1-.3-.2,0,0-.1-.1-.2-.2,0,0,0-.2,0-.3s0-.3,0-.4c0-.1,.1-.2,.3-.3,.1,0,.2-.1,.4-.2,.1,0,.3,0,.5,0s.4,0,.6,.1,.4,.2,.5,.3l-.3,.5Z"/>
    </g>
  </g>
</svg>