<?xml version="1.0" encoding="UTF-8"?>
<svg id="uuid-40ebbfa9-7d7e-40c6-94ee-dd3565ec8ef4" data-name="Layer 2" xmlns="http://www.w3.org/2000/svg" width="67.2" height="30.4" viewBox="0 0 67.2 30.4">
  <defs>
    <style>
      .uuid-1e5edfdd-1a77-472c-8b88-ba9e23de8460 {
        fill: #dad9d1;
      }
    </style>
  </defs>
  <g id="uuid-bfc43363-4ed5-4742-a74f-9a5efddf0fed" data-name="Capa 1">
    <g>
      <path class="uuid-1e5edfdd-1a77-472c-8b88-ba9e23de8460" d="M55.3,1.6c-1.3,0-2.5-.3-3.8-.2-4.1,.1-7.7,1.4-11.2,3.5-3.2,1.9-5.9,4.3-8.6,6.8-2.7,2.5-5.2,5.1-7.9,7.5-2.5,2.2-5.1,4.2-8.2,5.5-2.9,1.2-5.8,1.5-8.8,.7-3.2-.8-5.3-2.9-6.2-6-.9-3.1-.9-6.1,.9-8.9,1.8-2.8,4.5-4.2,7.8-4.5,1.9-.1,3.7,0,5.5,.7,2.2,1,3.4,3.2,2.9,5.5-.4,2-2.6,3.6-4.8,3.6-1.2,0-2.1-.3-2.9-1.2,.7,0,1.3,0,1.9,0,1,0,1.8-.4,2.1-1.4,.4-1.4,0-2.7-1.4-3.3-1-.4-2-.4-3-.3-4,.6-6.3,4.5-4.8,8.3,.7,1.7,2.1,2.5,3.8,2.7,3.4,.5,6.5-.4,9.4-2.2,2.8-1.8,5.3-3.8,7.8-5.9,3.5-2.9,6.9-5.9,10.7-8.4,2.8-1.8,5.8-3.3,9.2-4,3.4-.6,6.6-.2,9.6,1.3Z"/>
      <path class="uuid-1e5edfdd-1a77-472c-8b88-ba9e23de8460" d="M57.2,15.6c-.6,0-1.1,0-1.7,0-1.2,0-2.1,.8-2.3,1.7-.3,1.4,.3,2.5,1.5,3.1,1,.4,2,.4,3,.3,4.1-.6,6.4-5,4.5-8.7-.7-1.5-2-2.1-3.6-2.4-3.8-.6-7.1,.5-10.2,2.6-2.8,1.9-5.3,4-7.9,6.1-3.7,3.1-7.4,6.3-11.7,8.8-2.6,1.5-5.3,2.6-8.3,3.1-3.1,.4-6.1-.1-8.9-1.6,1.1,.2,2.2,.3,3.2,.3,4.1,0,7.8-1.1,11.3-3.1,3.3-1.9,6.2-4.3,8.9-6.9,3.1-2.8,5.9-5.8,9.1-8.5,2.7-2.3,5.6-4.4,9-5.4,2.5-.7,4.9-.7,7.4,0,2.6,.7,4.5,2.4,5.5,4.9,1.3,3.3,1.5,6.6-.4,9.7-1.7,2.9-4.4,4.4-7.8,4.6-1.7,.1-3.5,0-5.1-.6-1.7-.7-3-1.8-3.4-3.7-.6-2.9,1.7-4.9,3.6-5.4,1.6-.4,3.1,0,4,1Z"/>
    </g>
  </g>
</svg>