<?xml version="1.0" encoding="UTF-8"?>
<svg id="uuid-3f3e6909-cdea-48ab-8e5f-ece92080b286" data-name="Layer 2" xmlns="http://www.w3.org/2000/svg" width="17.3" height="17.3" viewBox="0 0 17.3 17.3">
  <defs>
    <style>
      .uuid-8057a6cd-8f88-4608-869d-ba180677fb2d, .uuid-e0cecf6d-22af-47bc-9835-c062fa749633 {
        fill: #fff;
      }

      .uuid-e0cecf6d-22af-47bc-9835-c062fa749633 {
        fill-rule: evenodd;
      }
    </style>
  </defs>
  <g id="uuid-a72081f9-8c91-4edf-9d8b-7a0403947259" data-name="Capa 1">
    <g>
      <g id="uuid-91287e8b-ac42-45cf-96a0-62f35407e45b" data-name="shape 3">
        <path class="uuid-8057a6cd-8f88-4608-869d-ba180677fb2d" d="M0,17.3l1.3-4.8c-.7-1.2-1-2.6-1-4C.3,3.8,4.1,0,8.8,0c2.3,0,4.4,.9,6,2.5,1.6,1.6,2.5,3.7,2.5,6,0,4.7-3.8,8.5-8.5,8.5s-2.7-.3-3.8-.9l-4.9,1.3Zm5.1-2.5h.2c1.1,.7,2.3,1,3.5,1,4,0,7.3-3.3,7.3-7.3,0-2-.8-3.8-2.1-5.2-1.4-1.4-3.2-2.1-5.2-2.1C4.8,1.2,1.5,4.4,1.5,8.5c0,1.3,.3,2.6,1,3.7v.2l-.8,3.4,3.4-.9Z"/>
      </g>
      <g id="uuid-9cc3b9b7-f2db-445d-a9ad-c8ec6e12643d" data-name="shape 1">
        <path class="uuid-e0cecf6d-22af-47bc-9835-c062fa749633" d="M6.7,5.1c-.2-.3-.3-.3-.5-.4-.1,0-.3,0-.4,0s-.4,0-.5,.3c-.2,.2-.7,.7-.7,1.7s.7,2,.8,2.1c.1,.1,1.4,2.3,3.5,3.1,1.7,.7,2.1,.5,2.5,.5,.4,0,1.2-.5,1.4-1,.2-.5,.2-.9,.1-1,0,0-.2-.1-.4-.2-.2-.1-1.2-.6-1.4-.7-.2,0-.3-.1-.5,.1-.1,.2-.5,.7-.6,.8-.1,.1-.2,.2-.4,0-.2-.1-.9-.3-1.6-1-.6-.5-1-1.2-1.1-1.4-.1-.2,0-.3,0-.4,0,0,.2-.2,.3-.4,.1-.1,.1-.2,.2-.3,0-.1,0-.3,0-.4,0-.1-.4-1.1-.6-1.5Z"/>
      </g>
    </g>
  </g>
</svg>