<?xml version="1.0" encoding="UTF-8"?>
<svg id="uuid-7e25bb32-4b4a-436d-bd1a-802becd33007" data-name="Layer 2" xmlns="http://www.w3.org/2000/svg" width="173.5" height="62" viewBox="0 0 173.5 62">
  <defs>
    <style>
      .uuid-dc8eea62-251e-4146-aa75-a7f53c56a553 {
        fill: #373435;
      }

      .uuid-b1c9b554-5fcd-4136-8bff-efb89ce2a39c {
        fill: #a3182c;
      }
    </style>
  </defs>
  <g id="uuid-d14563e1-e74a-4414-96a7-453fd3e15d45" data-name="Capa 1">
    <g>
      <path class="uuid-dc8eea62-251e-4146-aa75-a7f53c56a553" d="M70.2,12.8c-.3,.3-.5,.7-.8,1-1.5,1.5-3.5,2.3-5.7,2.3s-4.2-.8-5.7-2.3c-1.5-1.5-2.4-3.6-2.4-5.7s.8-4.2,2.4-5.7C59.5,.8,61.5,0,63.7,0s4.2,.8,5.7,2.3c.3,.3,.6,.6,.8,.9l-2.3,1.7c-.9-1.3-2.5-2.2-4.2-2.2-2.9,0-5.2,2.4-5.2,5.2s2.3,5.2,5.2,5.2,3.2-.9,4.2-2.2l2.4,1.7Z"/>
      <path class="uuid-dc8eea62-251e-4146-aa75-a7f53c56a553" d="M84.7,8c0-2.9-2.3-5.2-5.2-5.2s-5.2,2.4-5.2,5.2,2.3,5.2,5.2,5.2,5.2-2.4,5.2-5.2m0-7.7h2.9V15.7h-2.9v-1.8c-1.4,1.2-3.3,2.1-5.2,2.1s-4.2-.8-5.7-2.3c-1.5-1.5-2.4-3.6-2.4-5.7s.8-4.2,2.4-5.7c1.5-1.5,3.6-2.3,5.7-2.3s3.7,.9,5.2,2.1V.3Z"/>
      <path class="uuid-dc8eea62-251e-4146-aa75-a7f53c56a553" d="M102.4,11.2c0,.9-.2,1.7-.7,2.4-.5,.7-1.1,1.2-2.1,1.7-.8,.4-1.8,.6-2.8,.6s-1,0-1.6-.2c-1.7-.3-3.3-1.1-4.6-2.2l1.8-2c1.8,1.5,3.3,1.8,4.2,1.8s1.2-.1,1.8-.4c.4-.2,1.2-.7,1.2-1.7s-.9-1.7-3-2.1c-.1,0-2.7-.5-3.6-1-1.4-.8-2.2-2.1-2.2-3.6s.3-1.6,.7-2.4c.4-.6,1-1.1,1.9-1.5,.8-.4,1.7-.6,2.7-.6s.8,0,1.1,0c1.5,.2,2.9,.9,4.1,1.9l-1.7,2c-1.5-1.2-2.8-1.3-3.5-1.3s-1.2,.1-1.6,.3c-.7,.3-1.1,.9-1.1,1.5,0,1,.8,1.5,2.9,2,0,0,2.8,.6,3.6,1,.9,.5,1.2,.8,1.6,1.3,.5,.7,.7,1.5,.7,2.4Z"/>
      <path class="uuid-dc8eea62-251e-4146-aa75-a7f53c56a553" d="M117.9,8c0-2.9-2.3-5.2-5.2-5.2s-5.2,2.4-5.2,5.2,2.3,5.2,5.2,5.2,5.2-2.4,5.2-5.2m0-7.7h2.9V15.7h-2.9v-1.8c-1.4,1.2-3.3,2.1-5.2,2.1s-4.2-.8-5.7-2.3c-1.5-1.5-2.4-3.6-2.4-5.7s.8-4.2,2.4-5.7c1.5-1.5,3.6-2.3,5.7-2.3s3.7,.9,5.2,2.1V.3Z"/>
      <path class="uuid-dc8eea62-251e-4146-aa75-a7f53c56a553" d="M68.9,32.5c0-2.9-2.3-5.2-5.2-5.2s-5.2,2.4-5.2,5.2,2.3,5.2,5.2,5.2,5.2-2.4,5.2-5.2Zm2.9,0c0,2.2-.8,4.2-2.4,5.7-1.5,1.5-3.5,2.3-5.7,2.3s-3.7-.9-5.2-2.1v10.6h-2.9V24.8h2.9v1.8c1.4-1.2,3.3-2.1,5.2-2.1s4.2,.8,5.7,2.3c1.5,1.5,2.4,3.6,2.4,5.7Z"/>
      <path class="uuid-dc8eea62-251e-4146-aa75-a7f53c56a553" d="M77.9,26.4c1-1.1,3.8-1.9,5.6-1.9l-.7,2.9c-2.7,0-4.9,2.1-4.9,4.6v8.2h-2.9v-15.4h2.9v1.6Z"/>
      <path class="uuid-dc8eea62-251e-4146-aa75-a7f53c56a553" d="M97.8,32.5c0-2.9-2.3-5.2-5.2-5.2s-5.2,2.4-5.2,5.2,2.3,5.2,5.2,5.2,5.2-2.4,5.2-5.2Zm0-7.7h2.9v15.4h-2.9v-1.8c-1.4,1.2-3.3,2.1-5.2,2.1s-4.2-.8-5.7-2.3c-1.5-1.5-2.4-3.6-2.4-5.7s.8-4.2,2.4-5.7c1.5-1.5,3.6-2.3,5.7-2.3s3.7,.9,5.2,2.1v-1.8Z"/>
      <path class="uuid-dc8eea62-251e-4146-aa75-a7f53c56a553" d="M118.3,37.3c-.3,.3-.5,.7-.8,1-1.5,1.5-3.5,2.3-5.7,2.3s-4.2-.8-5.7-2.3c-1.5-1.5-2.4-3.6-2.4-5.7s.8-4.2,2.4-5.7c1.5-1.5,3.6-2.3,5.7-2.3s4.2,.8,5.7,2.3c.3,.3,.6,.6,.8,.9l-2.3,1.7c-.9-1.3-2.5-2.2-4.2-2.2-2.9,0-5.2,2.4-5.2,5.2s2.3,5.2,5.2,5.2,3.2-.9,4.2-2.2l2.4,1.7Z"/>
      <path class="uuid-dc8eea62-251e-4146-aa75-a7f53c56a553" d="M122.2,35.1v-7.5h-2.3v-2.8h2.3v-6h2.9v6h4.7v2.8h-4.7v7.5c0,1.2,1.1,2.4,2.3,2.4h2.6l.7,2.8h-3.4c-2.8,0-5.1-2.3-5.1-5.1Z"/>
      <path class="uuid-dc8eea62-251e-4146-aa75-a7f53c56a553" d="M133.9,24.8h2.9v15.4h-2.9v-15.4Zm-.5-4.4c0-1,.8-1.9,1.9-1.9s1.9,.8,1.9,1.9-.8,1.9-1.9,1.9-1.9-.9-1.9-1.9"/>
      <polygon class="uuid-dc8eea62-251e-4146-aa75-a7f53c56a553" points="156.7 40.2 153 40.2 147.4 32.4 144.7 34.9 144.7 40.2 141.8 40.2 141.8 15.6 144.7 15.6 144.7 31.1 151.4 24.8 155.5 24.8 149.5 30.4 156.7 40.2"/>
      <path class="uuid-dc8eea62-251e-4146-aa75-a7f53c56a553" d="M169.9,32.5c0-2.9-2.3-5.2-5.2-5.2s-5.2,2.4-5.2,5.2,2.3,5.2,5.2,5.2,5.2-2.4,5.2-5.2Zm0-7.7h2.9v15.4h-2.9v-1.8c-1.4,1.2-3.3,2.1-5.2,2.1s-4.2-.8-5.7-2.3c-1.5-1.5-2.4-3.6-2.4-5.7s.8-4.2,2.4-5.7c1.5-1.5,3.6-2.3,5.7-2.3s3.7,.9,5.2,2.1v-1.8Z"/>
      <path class="uuid-dc8eea62-251e-4146-aa75-a7f53c56a553" d="M89.4,23.3l-.2-.5,4.1-2.7c1.1-.7,1.9-1.2,2.3-1.3,.4-.1,.7,0,1,0,.3,.1,.6,.4,.7,.7,.2,.4,.2,.7,0,1-.2,.5-.8,.9-1.7,1.1l-6.2,1.6Z"/>
      <path class="uuid-b1c9b554-5fcd-4136-8bff-efb89ce2a39c" d="M31,45.3c3.9-1.4,6.9-3.4,9.6-6.4-5.5-4.9-10.9-9.8-16.4-14.8-.9-.8-1-2.3-.2-3.2,.8-.9,2.3-1,3.2-.2,5.4,4.8,10.7,9.6,16.1,14.4C52.5,19.7,41.5,.2,23.5,0,5.6-.2-5.8,19.2,3.1,34.8c7.4-8.2,14.7-16.3,22.1-24.5,.9-.9,2.3-1,3.2-.2,.9,.9,1,2.3,.2,3.2-7.6,8.4-15.2,16.8-22.8,25.2,6.3,7.2,16.3,9.8,25.3,6.7Z"/>
      <polygon class="uuid-dc8eea62-251e-4146-aa75-a7f53c56a553" points="2.1 57.4 2.1 61.9 .8 61.9 .8 54.9 1.8 54.9 5.5 59.5 5.5 54.9 6.9 54.9 6.9 61.9 5.7 61.9 2.1 57.4"/>
      <polygon class="uuid-dc8eea62-251e-4146-aa75-a7f53c56a553" points="15.5 60.7 15.5 61.9 10.6 61.9 10.6 54.9 15.4 54.9 15.4 56.1 12 56.1 12 57.8 14.9 57.8 14.9 58.9 12 58.9 12 60.7 15.5 60.7"/>
      <path class="uuid-dc8eea62-251e-4146-aa75-a7f53c56a553" d="M23.6,61.1c-.6,.6-1.2,.8-2,.8s-.9,0-1.3-.3c-.4-.2-.8-.4-1.1-.8-.3-.3-.5-.7-.7-1.1-.2-.4-.3-.9-.3-1.4s0-.9,.3-1.4c.2-.4,.4-.8,.7-1.1,.3-.3,.7-.6,1.1-.8,.4-.2,.9-.3,1.4-.3s1.2,.1,1.7,.4c.5,.3,.8,.7,1.1,1.1l-1,.8c-.2-.3-.4-.6-.7-.8-.3-.2-.7-.3-1-.3s-.6,0-.8,.2c-.2,.1-.5,.3-.6,.5-.2,.2-.3,.5-.4,.8,0,.3-.1,.6-.1,.9s0,.6,.2,.9c.1,.3,.3,.5,.4,.7,.2,.2,.4,.4,.7,.5,.3,.1,.5,.2,.8,.2,.7,0,1.3-.3,1.8-1v-.5h-1.4v-1h2.5v3.6h-1.1v-.8Z"/>
      <path class="uuid-dc8eea62-251e-4146-aa75-a7f53c56a553" d="M31.2,61.9c-.5,0-1-.1-1.4-.3-.4-.2-.8-.5-1.1-.8-.3-.3-.5-.7-.7-1.1-.2-.4-.2-.9-.2-1.3s0-.9,.3-1.3c.2-.4,.4-.8,.7-1.1,.3-.3,.7-.6,1.1-.8,.4-.2,.9-.3,1.4-.3s1,.1,1.4,.3c.4,.2,.8,.5,1.1,.8,.3,.3,.5,.7,.7,1.1,.2,.4,.2,.9,.2,1.3s0,.9-.3,1.3c-.2,.4-.4,.8-.7,1.1-.3,.3-.7,.6-1.1,.8-.4,.2-.9,.3-1.4,.3Zm-2-3.6c0,.3,0,.6,.1,.9,0,.3,.2,.5,.4,.8,.2,.2,.4,.4,.6,.5,.3,.1,.5,.2,.9,.2s.6,0,.9-.2,.5-.3,.6-.5c.2-.2,.3-.5,.4-.8,0-.3,.1-.6,.1-.9s0-.6-.1-.9c0-.3-.2-.5-.4-.8-.2-.2-.4-.4-.6-.5s-.5-.2-.9-.2-.6,0-.9,.2c-.3,.1-.5,.3-.6,.5-.2,.2-.3,.5-.4,.8,0,.3-.1,.6-.1,.9Z"/>
      <path class="uuid-dc8eea62-251e-4146-aa75-a7f53c56a553" d="M37.6,58.3c0-.4,0-.9,.2-1.3,.2-.4,.4-.8,.7-1.1,.3-.3,.7-.6,1.1-.8,.4-.2,.9-.3,1.5-.3s1.2,.1,1.7,.4c.5,.3,.8,.7,1.1,1.1l-1,.7c0-.2-.2-.4-.3-.5-.1-.1-.3-.2-.4-.3-.2,0-.3-.1-.5-.2-.2,0-.3,0-.5,0-.3,0-.6,0-.9,.2-.3,.1-.5,.3-.6,.5-.2,.2-.3,.5-.4,.8,0,.3-.1,.6-.1,.8s0,.6,.1,.9c0,.3,.2,.5,.4,.8,.2,.2,.4,.4,.7,.5,.3,.1,.5,.2,.8,.2s.3,0,.5,0c.2,0,.3-.1,.5-.2,.2,0,.3-.2,.4-.3,.1-.1,.2-.3,.3-.5l1.1,.6c-.1,.3-.3,.5-.5,.7s-.4,.4-.7,.5c-.3,.1-.5,.2-.8,.3-.3,0-.6,.1-.9,.1-.5,0-1-.1-1.4-.3-.4-.2-.8-.5-1.1-.8-.3-.3-.5-.7-.7-1.2-.2-.4-.3-.9-.3-1.3Z"/>
      <rect class="uuid-dc8eea62-251e-4146-aa75-a7f53c56a553" x="47.1" y="54.9" width="1.4" height="7"/>
      <path class="uuid-dc8eea62-251e-4146-aa75-a7f53c56a553" d="M55.2,61.9c-.5,0-1-.1-1.4-.3s-.8-.5-1.1-.8-.5-.7-.7-1.1c-.2-.4-.2-.9-.2-1.3s0-.9,.3-1.3c.2-.4,.4-.8,.7-1.1,.3-.3,.7-.6,1.1-.8,.4-.2,.9-.3,1.4-.3s1,.1,1.4,.3c.4,.2,.8,.5,1.1,.8,.3,.3,.5,.7,.7,1.1,.2,.4,.2,.9,.2,1.3s0,.9-.3,1.3c-.2,.4-.4,.8-.7,1.1s-.7,.6-1.1,.8c-.4,.2-.9,.3-1.4,.3Zm-2-3.6c0,.3,0,.6,.1,.9,0,.3,.2,.5,.4,.8,.2,.2,.4,.4,.6,.5,.3,.1,.5,.2,.9,.2s.6,0,.9-.2c.3-.1,.5-.3,.6-.5,.2-.2,.3-.5,.4-.8,0-.3,.1-.6,.1-.9s0-.6-.1-.9c0-.3-.2-.5-.4-.8-.2-.2-.4-.4-.6-.5-.3-.1-.5-.2-.9-.2s-.6,0-.9,.2c-.3,.1-.5,.3-.6,.5-.2,.2-.3,.5-.4,.8,0,.3-.1,.6-.1,.9Z"/>
      <path class="uuid-dc8eea62-251e-4146-aa75-a7f53c56a553" d="M66.2,56.7s-.1-.1-.3-.2c-.1,0-.3-.2-.4-.2-.2,0-.4-.1-.6-.2-.2,0-.4,0-.6,0-.4,0-.7,0-.8,.2-.2,.1-.3,.3-.3,.6s0,.3,.1,.4c0,0,.2,.2,.3,.3,.1,0,.3,.1,.5,.2,.2,0,.4,.1,.7,.2,.3,0,.7,.2,.9,.3s.5,.2,.7,.4c.2,.2,.3,.3,.5,.6,.1,.2,.2,.5,.2,.8s0,.7-.2,1c-.1,.3-.3,.5-.6,.6-.2,.2-.5,.3-.8,.4-.3,0-.6,.1-1,.1-.5,0-1,0-1.6-.2-.5-.2-1-.4-1.4-.7l.6-1.2c0,0,.2,.1,.3,.2,.2,0,.3,.2,.5,.3,.2,0,.4,.2,.7,.2,.3,0,.5,0,.8,0,.8,0,1.1-.2,1.1-.7s0-.3-.1-.4c0-.1-.2-.2-.4-.3-.2,0-.3-.2-.6-.2-.2,0-.5-.1-.8-.2-.3,0-.6-.2-.9-.3-.2-.1-.5-.2-.6-.4-.2-.1-.3-.3-.4-.5,0-.2-.1-.4-.1-.7s0-.7,.2-1c.1-.3,.3-.5,.5-.7,.2-.2,.5-.3,.8-.4,.3,0,.6-.1,1-.1s1,0,1.4,.2,.8,.3,1.1,.5l-.6,1.1Z"/>
      <rect class="uuid-dc8eea62-251e-4146-aa75-a7f53c56a553" x="72.7" y="54.9" width="1.4" height="7"/>
      <polygon class="uuid-dc8eea62-251e-4146-aa75-a7f53c56a553" points="79.2 57.4 79.2 61.9 77.9 61.9 77.9 54.9 78.9 54.9 82.6 59.5 82.6 54.9 84 54.9 84 61.9 82.9 61.9 79.2 57.4"/>
      <polygon class="uuid-dc8eea62-251e-4146-aa75-a7f53c56a553" points="93.5 61.9 93.5 57.2 91.6 60.7 90.9 60.7 89.1 57.2 89.1 61.9 87.7 61.9 87.7 54.9 89.2 54.9 91.3 58.9 93.4 54.9 94.8 54.9 94.8 61.9 93.5 61.9"/>
      <path class="uuid-dc8eea62-251e-4146-aa75-a7f53c56a553" d="M101.6,61.9c-.5,0-1-.1-1.4-.3-.4-.2-.8-.5-1.1-.8-.3-.3-.5-.7-.7-1.1-.2-.4-.2-.9-.2-1.3s0-.9,.3-1.3c.2-.4,.4-.8,.7-1.1,.3-.3,.7-.6,1.1-.8,.4-.2,.9-.3,1.4-.3s1,.1,1.4,.3c.4,.2,.8,.5,1.1,.8,.3,.3,.5,.7,.7,1.1,.2,.4,.2,.9,.2,1.3s0,.9-.3,1.3c-.2,.4-.4,.8-.7,1.1-.3,.3-.7,.6-1.1,.8-.4,.2-.9,.3-1.4,.3Zm-2-3.6c0,.3,0,.6,.1,.9,0,.3,.2,.5,.4,.8,.2,.2,.4,.4,.6,.5,.3,.1,.5,.2,.9,.2s.6,0,.9-.2,.5-.3,.6-.5c.2-.2,.3-.5,.4-.8,0-.3,.1-.6,.1-.9s0-.6-.1-.9c0-.3-.2-.5-.4-.8-.2-.2-.4-.4-.6-.5-.3-.1-.5-.2-.9-.2s-.6,0-.9,.2c-.3,.1-.5,.3-.6,.5-.2,.2-.3,.5-.4,.8,0,.3-.1,.6-.1,.9Z"/>
      <path class="uuid-dc8eea62-251e-4146-aa75-a7f53c56a553" d="M114,60.1c0,.3,0,.6-.2,.8-.1,.2-.3,.4-.5,.6-.2,.2-.4,.3-.7,.3-.3,0-.6,.1-.9,.1h-3.4v-7h3.8c.2,0,.5,0,.7,.2,.2,.1,.4,.2,.5,.4,.1,.2,.2,.4,.3,.6,0,.2,.1,.4,.1,.6,0,.3,0,.7-.3,1-.2,.3-.4,.5-.8,.7,.4,.1,.7,.3,1,.6,.2,.3,.4,.7,.4,1.2m-1.4-.3c0-.1,0-.2,0-.4,0-.1-.1-.2-.2-.3,0,0-.2-.2-.3-.2,0,0-.2,0-.3,0h-2.1v1.9h2c.1,0,.2,0,.4,0,.1,0,.2-.1,.3-.2,0,0,.1-.2,.2-.3,0-.1,0-.2,0-.4Zm-2.9-3.8v1.8h1.8c.2,0,.4,0,.6-.2,.2-.2,.2-.4,.2-.7s0-.5-.2-.6c-.1-.2-.3-.2-.5-.2h-1.9Z"/>
      <rect class="uuid-dc8eea62-251e-4146-aa75-a7f53c56a553" x="117.4" y="54.9" width="1.4" height="7"/>
      <polygon class="uuid-dc8eea62-251e-4146-aa75-a7f53c56a553" points="122.5 61.9 122.5 54.9 123.9 54.9 123.9 60.7 127.5 60.7 127.5 61.9 122.5 61.9"/>
      <rect class="uuid-dc8eea62-251e-4146-aa75-a7f53c56a553" x="130.6" y="54.9" width="1.4" height="7"/>
      <path class="uuid-dc8eea62-251e-4146-aa75-a7f53c56a553" d="M137.8,54.9h1.2l2.7,7h-1.4l-.7-1.8h-2.5l-.6,1.8h-1.4l2.7-7Zm1.6,4.3l-1-2.8-1,2.8h2Z"/>
      <path class="uuid-dc8eea62-251e-4146-aa75-a7f53c56a553" d="M144.7,61.9v-7h3.1c.3,0,.6,0,.9,.2,.3,.1,.5,.3,.7,.5,.2,.2,.4,.5,.5,.8,.1,.3,.2,.6,.2,.8,0,.5-.1,.9-.3,1.2-.2,.4-.5,.6-.9,.8l1.6,2.6h-1.5l-1.4-2.4h-1.3v2.4h-1.4Zm1.4-3.6h1.7c.1,0,.2,0,.4,0,.1,0,.2-.1,.3-.2,0-.1,.1-.2,.2-.4,0-.1,0-.3,0-.4s0-.3,0-.5c0-.1-.1-.3-.2-.4,0-.1-.2-.2-.3-.2-.1,0-.2,0-.4,0h-1.7v2.3Z"/>
      <rect class="uuid-dc8eea62-251e-4146-aa75-a7f53c56a553" x="153.6" y="54.9" width="1.4" height="7"/>
      <path class="uuid-dc8eea62-251e-4146-aa75-a7f53c56a553" d="M161.7,61.9c-.5,0-1-.1-1.4-.3s-.8-.5-1.1-.8c-.3-.3-.5-.7-.7-1.1-.2-.4-.2-.9-.2-1.3s0-.9,.3-1.3c.2-.4,.4-.8,.7-1.1,.3-.3,.7-.6,1.1-.8,.4-.2,.9-.3,1.4-.3s1,.1,1.4,.3c.4,.2,.8,.5,1.1,.8,.3,.3,.5,.7,.7,1.1,.2,.4,.2,.9,.2,1.3s0,.9-.3,1.3c-.2,.4-.4,.8-.7,1.1-.3,.3-.7,.6-1.1,.8-.4,.2-.9,.3-1.4,.3Zm-2-3.6c0,.3,0,.6,.1,.9,0,.3,.2,.5,.4,.8,.2,.2,.4,.4,.6,.5,.3,.1,.5,.2,.9,.2s.6,0,.9-.2,.5-.3,.6-.5c.2-.2,.3-.5,.4-.8,0-.3,.1-.6,.1-.9s0-.6-.1-.9c0-.3-.2-.5-.4-.8-.2-.2-.4-.4-.6-.5-.3-.1-.5-.2-.9-.2s-.6,0-.9,.2c-.3,.1-.5,.3-.6,.5-.2,.2-.3,.5-.4,.8,0,.3-.1,.6-.1,.9Z"/>
      <path class="uuid-dc8eea62-251e-4146-aa75-a7f53c56a553" d="M172.7,56.7s-.1-.1-.3-.2c-.1,0-.3-.2-.4-.2-.2,0-.4-.1-.6-.2-.2,0-.4,0-.6,0-.4,0-.7,0-.8,.2-.2,.1-.3,.3-.3,.6s0,.3,.1,.4c0,0,.2,.2,.3,.3,.1,0,.3,.1,.5,.2,.2,0,.4,.1,.7,.2,.3,0,.7,.2,.9,.3s.5,.2,.7,.4c.2,.2,.3,.3,.5,.6,.1,.2,.2,.5,.2,.8s0,.7-.2,1c-.1,.3-.3,.5-.6,.6-.2,.2-.5,.3-.8,.4-.3,0-.6,.1-1,.1-.5,0-1,0-1.6-.2-.5-.2-1-.4-1.4-.7l.6-1.2c0,0,.2,.1,.3,.2,.2,0,.3,.2,.5,.3,.2,0,.4,.2,.7,.2,.3,0,.5,0,.8,0,.8,0,1.1-.2,1.1-.7s0-.3-.1-.4c0-.1-.2-.2-.4-.3-.2,0-.3-.2-.6-.2-.2,0-.5-.1-.8-.2-.3,0-.6-.2-.9-.3-.2-.1-.5-.2-.6-.4-.2-.1-.3-.3-.4-.5,0-.2-.1-.4-.1-.7s0-.7,.2-1c.1-.3,.3-.5,.5-.7,.2-.2,.5-.3,.8-.4,.3,0,.6-.1,1-.1s1,0,1.4,.2,.8,.3,1.1,.5l-.6,1.1Z"/>
    </g>
  </g>
</svg>